<svg width="80" height="182" viewBox="0 0 80 182" fill="none" xmlns="http://www.w3.org/2000/svg">
<g id="colorMap">
<rect id="colorSecondary" x="9" y="100" width="60" height="20" rx="3" fill="#FA3E34"/>
<rect id="colorBackground" x="9" y="149" width="60" height="20" rx="3" fill="white"/>
<path id="Secondary" d="M11.74 92.12C13.21 92.12 14.09 91.24 14.09 90.18C14.09 89.23 13.54 88.74 12.77 88.41L11.88 88.04C11.34 87.82 10.84 87.63 10.84 87.12C10.84 86.64 11.25 86.35 11.87 86.35C12.43 86.35 12.87 86.56 13.29 86.91L13.88 86.17C13.37 85.66 12.63 85.34 11.87 85.34C10.59 85.34 9.67 86.14 9.67 87.18C9.67 88.14 10.35 88.65 10.99 88.92L11.89 89.31C12.48 89.56 12.9 89.73 12.9 90.27C12.9 90.78 12.5 91.11 11.76 91.11C11.16 91.11 10.53 90.81 10.06 90.37L9.38 91.16C10 91.77 10.86 92.12 11.74 92.12ZM17.2792 92.12C17.8992 92.12 18.4892 91.9 18.9592 91.59L18.5692 90.87C18.2092 91.1 17.8492 91.23 17.4292 91.23C16.6392 91.23 16.0792 90.73 15.9792 89.86H19.0992C19.1292 89.74 19.1492 89.52 19.1492 89.3C19.1492 87.93 18.4492 86.97 17.1192 86.97C15.9692 86.97 14.8592 87.95 14.8592 89.55C14.8592 91.17 15.9192 92.12 17.2792 92.12ZM15.9692 89.08C16.0692 88.29 16.5692 87.86 17.1492 87.86C17.8192 87.86 18.1492 88.32 18.1492 89.08H15.9692ZM22.2976 92.12C22.8576 92.12 23.4376 91.92 23.8976 91.52L23.4276 90.76C23.1476 90.99 22.7976 91.18 22.4176 91.18C21.6476 91.18 21.1076 90.53 21.1076 89.55C21.1076 88.56 21.6576 87.91 22.4476 87.91C22.7576 87.91 23.0076 88.04 23.2676 88.27L23.8276 87.52C23.4676 87.21 23.0176 86.97 22.3876 86.97C21.0776 86.97 19.9276 87.91 19.9276 89.55C19.9276 91.18 20.9576 92.12 22.2976 92.12ZM26.6326 92.12C27.8626 92.12 28.9726 91.18 28.9726 89.55C28.9726 87.91 27.8626 86.97 26.6326 86.97C25.4126 86.97 24.3026 87.91 24.3026 89.55C24.3026 91.18 25.4126 92.12 26.6326 92.12ZM26.6326 91.18C25.9126 91.18 25.4826 90.53 25.4826 89.55C25.4826 88.56 25.9126 87.91 26.6326 87.91C27.3526 87.91 27.7926 88.56 27.7926 89.55C27.7926 90.53 27.3526 91.18 26.6326 91.18ZM30.1109 92H31.2609V88.57C31.6709 88.17 31.9509 87.96 32.3809 87.96C32.9209 87.96 33.1509 88.26 33.1509 89.07V92H34.3009V88.92C34.3009 87.68 33.8409 86.97 32.7909 86.97C32.1209 86.97 31.6209 87.32 31.1809 87.75H31.1409L31.0609 87.09H30.1109V92ZM37.4266 92.12C37.9566 92.12 38.4566 91.83 38.8166 91.47H38.8566L38.9366 92H39.8866V84.94H38.7366V86.72L38.7766 87.51C38.3966 87.18 38.0466 86.97 37.4866 86.97C36.4166 86.97 35.4066 87.95 35.4066 89.55C35.4066 91.17 36.1966 92.12 37.4266 92.12ZM37.7066 91.17C36.9966 91.17 36.5966 90.6 36.5966 89.54C36.5966 88.51 37.1066 87.92 37.7366 87.92C38.0666 87.92 38.3966 88.03 38.7366 88.33V90.62C38.4066 91 38.0866 91.17 37.7066 91.17ZM42.5411 92.12C43.1211 92.12 43.6211 91.83 44.0611 91.46H44.1011L44.1811 92H45.1311V89.09C45.1311 87.72 44.5211 86.97 43.3011 86.97C42.5211 86.97 41.8211 87.27 41.2811 87.61L41.7011 88.38C42.1411 88.12 42.6011 87.9 43.0811 87.9C43.7511 87.9 43.9611 88.34 43.9811 88.86C41.9611 89.08 41.0911 89.63 41.0911 90.68C41.0911 91.54 41.6811 92.12 42.5411 92.12ZM42.9111 91.22C42.5011 91.22 42.2011 91.03 42.2011 90.59C42.2011 90.1 42.6411 89.75 43.9811 89.58V90.68C43.6111 91.02 43.3111 91.22 42.9111 91.22ZM46.5073 92H47.6573V89C47.9573 88.26 48.4273 87.99 48.8173 87.99C49.0273 87.99 49.1573 88.02 49.3273 88.07L49.5273 87.07C49.3773 87 49.2173 86.97 48.9673 86.97C48.4473 86.97 47.9273 87.32 47.5773 87.96H47.5373L47.4573 87.09H46.5073V92ZM50.7241 94.02C51.7941 94.02 52.3041 93.33 52.7141 92.22L54.4941 87.09H53.3841L52.6441 89.5C52.5241 89.94 52.3941 90.43 52.2741 90.88H52.2341C52.0841 90.42 51.9441 89.93 51.8041 89.5L50.9541 87.09H49.7841L51.7141 91.94L51.6241 92.25C51.4641 92.74 51.1641 93.09 50.6441 93.09C50.5241 93.09 50.3841 93.05 50.2941 93.02L50.0841 93.92C50.2641 93.98 50.4541 94.02 50.7241 94.02Z" fill="#3C3C3B"/>
<path id="Background" d="M9.83 140.671H12.09C13.53 140.671 14.6 140.061 14.6 138.751C14.6 137.871 14.07 137.361 13.35 137.201V137.161C13.92 136.961 14.26 136.361 14.26 135.741C14.26 134.541 13.27 134.131 11.92 134.131H9.83V140.671ZM10.99 136.831V135.031H11.84C12.69 135.031 13.12 135.271 13.12 135.911C13.12 136.471 12.73 136.831 11.82 136.831H10.99ZM10.99 139.771V137.701H11.97C12.95 137.701 13.47 138.001 13.47 138.691C13.47 139.421 12.93 139.771 11.97 139.771H10.99ZM16.8868 140.791C17.4668 140.791 17.9668 140.501 18.4068 140.131H18.4468L18.5268 140.671H19.4768V137.761C19.4768 136.391 18.8668 135.641 17.6468 135.641C16.8668 135.641 16.1668 135.941 15.6268 136.281L16.0468 137.051C16.4868 136.791 16.9468 136.571 17.4268 136.571C18.0968 136.571 18.3068 137.011 18.3268 137.531C16.3068 137.751 15.4368 138.301 15.4368 139.351C15.4368 140.211 16.0268 140.791 16.8868 140.791ZM17.2568 139.891C16.8468 139.891 16.5468 139.701 16.5468 139.261C16.5468 138.771 16.9868 138.421 18.3268 138.251V139.351C17.9568 139.691 17.6568 139.891 17.2568 139.891ZM22.903 140.791C23.463 140.791 24.043 140.591 24.503 140.191L24.033 139.431C23.753 139.661 23.403 139.851 23.023 139.851C22.253 139.851 21.713 139.201 21.713 138.221C21.713 137.231 22.263 136.581 23.053 136.581C23.363 136.581 23.613 136.711 23.873 136.941L24.433 136.191C24.073 135.881 23.623 135.641 22.993 135.641C21.683 135.641 20.533 136.581 20.533 138.221C20.533 139.851 21.563 140.791 22.903 140.791ZM25.4722 140.671H26.6022V139.421L27.3722 138.541L28.6322 140.671H29.8822L28.0322 137.761L29.7122 135.761H28.4522L26.6322 138.021H26.6022V133.611H25.4722V140.671ZM32.3091 142.841C33.9091 142.841 34.9291 142.081 34.9291 141.111C34.9291 140.261 34.3091 139.901 33.1291 139.901H32.2591C31.6591 139.901 31.4591 139.731 31.4591 139.451C31.4591 139.231 31.5491 139.111 31.6991 138.981C31.9191 139.071 32.1591 139.111 32.3691 139.111C33.4091 139.111 34.2291 138.531 34.2291 137.441C34.2291 137.101 34.1091 136.801 33.9491 136.611H34.8491V135.761H33.0891C32.8891 135.691 32.6391 135.641 32.3691 135.641C31.3391 135.641 30.4291 136.271 30.4291 137.401C30.4291 137.981 30.7391 138.451 31.0691 138.701V138.741C30.7891 138.941 30.5291 139.271 30.5291 139.651C30.5291 140.051 30.7191 140.311 30.9691 140.471V140.511C30.5191 140.791 30.2691 141.151 30.2691 141.561C30.2691 142.421 31.1391 142.841 32.3091 142.841ZM32.3691 138.391C31.8891 138.391 31.5091 138.031 31.5091 137.401C31.5091 136.781 31.8891 136.431 32.3691 136.431C32.8491 136.431 33.2191 136.791 33.2191 137.401C33.2191 138.031 32.8391 138.391 32.3691 138.391ZM32.4891 142.091C31.7091 142.091 31.2291 141.831 31.2291 141.391C31.2291 141.161 31.3491 140.941 31.6091 140.741C31.7991 140.791 32.0091 140.811 32.2791 140.811H32.9491C33.5091 140.811 33.8191 140.921 33.8191 141.301C33.8191 141.721 33.2791 142.091 32.4891 142.091ZM35.7945 140.671H36.9445V137.671C37.2445 136.931 37.7145 136.661 38.1045 136.661C38.3145 136.661 38.4445 136.691 38.6145 136.741L38.8145 135.741C38.6645 135.671 38.5045 135.641 38.2545 135.641C37.7345 135.641 37.2145 135.991 36.8645 136.631H36.8245L36.7445 135.761H35.7945V140.671ZM41.4373 140.791C42.6673 140.791 43.7773 139.851 43.7773 138.221C43.7773 136.581 42.6673 135.641 41.4373 135.641C40.2173 135.641 39.1073 136.581 39.1073 138.221C39.1073 139.851 40.2173 140.791 41.4373 140.791ZM41.4373 139.851C40.7173 139.851 40.2873 139.201 40.2873 138.221C40.2873 137.231 40.7173 136.581 41.4373 136.581C42.1573 136.581 42.5973 137.231 42.5973 138.221C42.5973 139.201 42.1573 139.851 41.4373 139.851ZM46.3755 140.791C47.0455 140.791 47.5255 140.461 47.9555 139.951H47.9855L48.0755 140.671H49.0155V135.761H47.8655V139.121C47.4955 139.601 47.2055 139.801 46.7755 139.801C46.2455 139.801 46.0155 139.501 46.0155 138.691V135.761H44.8655V138.841C44.8655 140.081 45.3255 140.791 46.3755 140.791ZM50.4722 140.671H51.6222V137.241C52.0322 136.841 52.3122 136.631 52.7422 136.631C53.2822 136.631 53.5122 136.931 53.5122 137.741V140.671H54.6622V137.591C54.6622 136.351 54.2022 135.641 53.1522 135.641C52.4822 135.641 51.9822 135.991 51.5422 136.421H51.5022L51.4222 135.761H50.4722V140.671ZM57.7879 140.791C58.3179 140.791 58.8179 140.501 59.1779 140.141H59.2179L59.2979 140.671H60.2479V133.611H59.0979V135.391L59.1379 136.181C58.7579 135.851 58.4079 135.641 57.8479 135.641C56.7779 135.641 55.7679 136.621 55.7679 138.221C55.7679 139.841 56.5579 140.791 57.7879 140.791ZM58.0679 139.841C57.3579 139.841 56.9579 139.271 56.9579 138.211C56.9579 137.181 57.4679 136.591 58.0979 136.591C58.4279 136.591 58.7579 136.701 59.0979 137.001V139.291C58.7679 139.671 58.4479 139.841 58.0679 139.841Z" fill="#3C3C3B"/>
<rect id="colorPrimary" x="9" y="52" width="60" height="20" rx="3" fill="#3C3C3B"/>
<path id="Primary" d="M9.83 44H10.99V41.6H11.93C13.34 41.6 14.42 40.93 14.42 39.48C14.42 37.96 13.34 37.46 11.89 37.46H9.83V44ZM10.99 40.67V38.39H11.8C12.77 38.39 13.28 38.66 13.28 39.48C13.28 40.28 12.81 40.67 11.84 40.67H10.99ZM15.5503 44H16.7003V41C17.0003 40.26 17.4703 39.99 17.8603 39.99C18.0703 39.99 18.2003 40.02 18.3703 40.07L18.5703 39.07C18.4203 39 18.2603 38.97 18.0103 38.97C17.4903 38.97 16.9703 39.32 16.6203 39.96H16.5803L16.5003 39.09H15.5503V44ZM19.2808 44H20.4308V39.09H19.2808V44ZM19.8608 38.23C20.2708 38.23 20.5708 37.96 20.5708 37.58C20.5708 37.19 20.2708 36.92 19.8608 36.92C19.4508 36.92 19.1508 37.19 19.1508 37.58C19.1508 37.96 19.4508 38.23 19.8608 38.23ZM21.898 44H23.048V40.57C23.428 40.16 23.778 39.96 24.078 39.96C24.598 39.96 24.838 40.26 24.838 41.07V44H25.988V40.57C26.368 40.16 26.708 39.96 27.018 39.96C27.528 39.96 27.768 40.26 27.768 41.07V44H28.928V40.92C28.928 39.68 28.448 38.97 27.408 38.97C26.788 38.97 26.298 39.35 25.828 39.85C25.598 39.3 25.188 38.97 24.468 38.97C23.858 38.97 23.378 39.32 22.968 39.76H22.928L22.848 39.09H21.898V44ZM31.5157 44.12C32.0957 44.12 32.5957 43.83 33.0357 43.46H33.0757L33.1557 44H34.1057V41.09C34.1057 39.72 33.4957 38.97 32.2757 38.97C31.4957 38.97 30.7957 39.27 30.2557 39.61L30.6757 40.38C31.1157 40.12 31.5757 39.9 32.0557 39.9C32.7257 39.9 32.9357 40.34 32.9557 40.86C30.9357 41.08 30.0657 41.63 30.0657 42.68C30.0657 43.54 30.6557 44.12 31.5157 44.12ZM31.8857 43.22C31.4757 43.22 31.1757 43.03 31.1757 42.59C31.1757 42.1 31.6157 41.75 32.9557 41.58V42.68C32.5857 43.02 32.2857 43.22 31.8857 43.22ZM35.482 44H36.632V41C36.932 40.26 37.402 39.99 37.792 39.99C38.002 39.99 38.132 40.02 38.302 40.07L38.502 39.07C38.352 39 38.192 38.97 37.942 38.97C37.422 38.97 36.902 39.32 36.552 39.96H36.512L36.432 39.09H35.482V44ZM39.6987 46.02C40.7687 46.02 41.2787 45.33 41.6887 44.22L43.4687 39.09H42.3587L41.6187 41.5C41.4987 41.94 41.3687 42.43 41.2487 42.88H41.2087C41.0587 42.42 40.9187 41.93 40.7787 41.5L39.9287 39.09H38.7587L40.6887 43.94L40.5987 44.25C40.4387 44.74 40.1387 45.09 39.6187 45.09C39.4987 45.09 39.3587 45.05 39.2687 45.02L39.0587 45.92C39.2387 45.98 39.4287 46.02 39.6987 46.02Z" fill="#3C3C3B"/>
<path id="Colors" d="M14.16 21.18C15.42 21.18 16.455 20.67 17.25 19.755L16.32 18.66C15.765 19.26 15.09 19.665 14.22 19.665C12.57 19.665 11.52 18.315 11.52 16.08C11.52 13.875 12.66 12.525 14.265 12.525C15.03 12.525 15.615 12.87 16.125 13.38L17.055 12.255C16.44 11.595 15.45 11.01 14.22 11.01C11.745 11.01 9.735 12.915 9.735 16.125C9.735 19.38 11.685 21.18 14.16 21.18ZM21.7526 21.18C23.5976 21.18 25.2626 19.77 25.2626 17.325C25.2626 14.865 23.5976 13.455 21.7526 13.455C19.9226 13.455 18.2576 14.865 18.2576 17.325C18.2576 19.77 19.9226 21.18 21.7526 21.18ZM21.7526 19.77C20.6726 19.77 20.0276 18.795 20.0276 17.325C20.0276 15.84 20.6726 14.865 21.7526 14.865C22.8326 14.865 23.4926 15.84 23.4926 17.325C23.4926 18.795 22.8326 19.77 21.7526 19.77ZM28.65 21.18C29.055 21.18 29.355 21.12 29.565 21.03L29.34 19.74C29.205 19.77 29.145 19.77 29.07 19.77C28.89 19.77 28.695 19.62 28.695 19.2V10.41H26.97V19.11C26.97 20.385 27.42 21.18 28.65 21.18ZM34.0573 21.18C35.9023 21.18 37.5673 19.77 37.5673 17.325C37.5673 14.865 35.9023 13.455 34.0573 13.455C32.2273 13.455 30.5623 14.865 30.5623 17.325C30.5623 19.77 32.2273 21.18 34.0573 21.18ZM34.0573 19.77C32.9773 19.77 32.3323 18.795 32.3323 17.325C32.3323 15.84 32.9773 14.865 34.0573 14.865C35.1373 14.865 35.7973 15.84 35.7973 17.325C35.7973 18.795 35.1373 19.77 34.0573 19.77ZM39.2747 21H40.9997V16.5C41.4497 15.39 42.1547 14.985 42.7397 14.985C43.0547 14.985 43.2497 15.03 43.5047 15.105L43.8047 13.605C43.5797 13.5 43.3397 13.455 42.9647 13.455C42.1847 13.455 41.4047 13.98 40.8797 14.94H40.8197L40.6997 13.635H39.2747V21ZM46.8375 21.18C48.6975 21.18 49.7025 20.16 49.7025 18.9C49.7025 17.52 48.5925 17.04 47.5875 16.665C46.7925 16.38 46.0575 16.155 46.0575 15.57C46.0575 15.105 46.4025 14.76 47.1375 14.76C47.7225 14.76 48.2475 15.015 48.7575 15.39L49.5525 14.34C48.9525 13.875 48.1275 13.455 47.1075 13.455C45.4575 13.455 44.4225 14.37 44.4225 15.66C44.4225 16.89 45.5175 17.445 46.4925 17.805C47.2725 18.105 48.0675 18.375 48.0675 18.99C48.0675 19.5 47.6925 19.875 46.8975 19.875C46.1475 19.875 45.5175 19.56 44.8575 19.05L44.0475 20.16C44.7675 20.745 45.8325 21.18 46.8375 21.18Z" fill="#3C3C3B"/>
</g>
</svg>
